<mxfile host="app.diagrams.net" modified="2024-06-10T07:02:17.657Z" agent="Mozilla/5.0 (Windows NT 10.0; Win64; x64) AppleWebKit/537.36 (KHTML, like Gecko) Chrome/125.0.0.0 Safari/537.36" etag="GYGl7xKeO7ULzHl0mi6s" version="24.5.2" type="onedrive">
  <diagram name="Halaman-1" id="KDkyKzJQ7zhLI5eqtQw3">
    <mxGraphModel grid="1" page="1" gridSize="10" guides="1" tooltips="1" connect="1" arrows="1" fold="1" pageScale="1" pageWidth="827" pageHeight="1169" math="0" shadow="0">
      <root>
        <mxCell id="0" />
        <mxCell id="1" parent="0" />
        <mxCell id="C-qAeipKTemC4s-ehckk-1" value="" style="edgeStyle=orthogonalEdgeStyle;rounded=0;orthogonalLoop=1;jettySize=auto;html=1;" edge="1" parent="1" source="C-qAeipKTemC4s-ehckk-2" target="C-qAeipKTemC4s-ehckk-4">
          <mxGeometry relative="1" as="geometry" />
        </mxCell>
        <mxCell id="C-qAeipKTemC4s-ehckk-2" value="tampilkanBiayaTindakan" style="ellipse;whiteSpace=wrap;html=1;" vertex="1" parent="1">
          <mxGeometry x="35" y="40" width="140" height="40" as="geometry" />
        </mxCell>
        <mxCell id="C-qAeipKTemC4s-ehckk-3" value="" style="edgeStyle=orthogonalEdgeStyle;rounded=0;orthogonalLoop=1;jettySize=auto;html=1;" edge="1" parent="1" source="C-qAeipKTemC4s-ehckk-4" target="C-qAeipKTemC4s-ehckk-7">
          <mxGeometry relative="1" as="geometry" />
        </mxCell>
        <mxCell id="C-qAeipKTemC4s-ehckk-4" value="mulai" style="ellipse;whiteSpace=wrap;html=1;" vertex="1" parent="1">
          <mxGeometry x="80" y="120" width="50" height="20" as="geometry" />
        </mxCell>
        <mxCell id="C-qAeipKTemC4s-ehckk-5" value="selesai" style="ellipse;whiteSpace=wrap;html=1;" vertex="1" parent="1">
          <mxGeometry x="80" y="400" width="50" height="20" as="geometry" />
        </mxCell>
        <mxCell id="C-qAeipKTemC4s-ehckk-6" value="" style="edgeStyle=orthogonalEdgeStyle;rounded=0;orthogonalLoop=1;jettySize=auto;html=1;" edge="1" parent="1" source="C-qAeipKTemC4s-ehckk-7" target="C-qAeipKTemC4s-ehckk-9">
          <mxGeometry relative="1" as="geometry" />
        </mxCell>
        <mxCell id="C-qAeipKTemC4s-ehckk-7" value="pengulangan sebanyak variabel &quot;sizeBiayaTindakan&quot; (jumlah baris file biaya tindakan)" style="rounded=1;whiteSpace=wrap;html=1;" vertex="1" parent="1">
          <mxGeometry x="45" y="180" width="120" height="80" as="geometry" />
        </mxCell>
        <mxCell id="C-qAeipKTemC4s-ehckk-8" value="" style="edgeStyle=orthogonalEdgeStyle;rounded=0;orthogonalLoop=1;jettySize=auto;html=1;" edge="1" parent="1" source="C-qAeipKTemC4s-ehckk-9" target="C-qAeipKTemC4s-ehckk-5">
          <mxGeometry relative="1" as="geometry" />
        </mxCell>
        <mxCell id="C-qAeipKTemC4s-ehckk-9" value="menampilkan rincian biaya tindakan (no., aktivitas, biaya)" style="shape=parallelogram;perimeter=parallelogramPerimeter;whiteSpace=wrap;html=1;fixedSize=1;" vertex="1" parent="1">
          <mxGeometry x="45" y="300" width="120" height="60" as="geometry" />
        </mxCell>
      </root>
    </mxGraphModel>
  </diagram>
</mxfile>
